<?xml version="1.0"?>
<svg xmlns="http://www.w3.org/2000/svg" xmlns:xlink="http://www.w3.org/1999/xlink" xmlns:svgjs="http://svgjs.com/svgjs" version="1.1" width="74" height="74" x="0" y="0" viewBox="0 0 24 24" style="enable-background:new 0 0 512 512" xml:space="preserve"><g><path xmlns="http://www.w3.org/2000/svg" d="M6.028,24c-4.979-.021-7.075-4.188-5.535-9.179C2.343,7.43,15.015-4.362,22.359,1.641h0C28.834,9.569,14.584,24.3,6.028,24ZM17.969,2C11.4,2.25,4.239,9.3,2.411,15.384c-.721,2.451-.492,4.426.644,5.561,6.8,5.332,23.222-11.089,17.89-17.89h0A4.072,4.072,0,0,0,17.969,2ZM15,14a4.784,4.784,0,0,0-5-5,1,1,0,0,0,0,2,2.783,2.783,0,0,1,3,3A1,1,0,0,0,15,14Zm4-4a4.784,4.784,0,0,0-5-5,1,1,0,0,0,0,2,2.783,2.783,0,0,1,3,3A1,1,0,0,0,19,10Zm-8,8a4.784,4.784,0,0,0-5-5,1,1,0,0,0,0,2,2.783,2.783,0,0,1,3,3A1,1,0,0,0,11,18Z" fill="#ffffff" data-original="#000000"/></g></svg>
