<svg width="74" height="74" viewBox="0 0 74 74" fill="none" xmlns="http://www.w3.org/2000/svg">
<path d="M19.5278 68.1502H50.3611V26.2266H41.1111C39.1926 26.2266 37.5824 26.7303 36.2806 27.7378C34.9787 28.7453 33.5056 30.1265 31.8611 31.8814C30.0796 33.7664 28.1269 35.4238 26.0028 36.8538C23.8787 38.2837 21.7204 39.2587 19.5278 39.7787V68.1502ZM13.3611 74V39.6812C9.79815 38.7712 6.68056 37.0487 4.00833 34.5138C1.33611 31.9789 0 28.8915 0 25.2516C0 21.8068 1.04491 18.7519 3.13472 16.087C5.22454 13.422 7.91389 11.5696 11.2028 10.5296C12.7787 7.40975 15.1255 4.87484 18.2431 2.9249C21.3606 0.974967 24.8722 0 28.7778 0C31.1759 0 33.4199 0.389987 35.5097 1.16996C37.5995 1.94993 39.5009 2.9899 41.2139 4.28985C41.8991 4.15986 42.55 4.04611 43.1667 3.94862C43.7833 3.85112 44.4685 3.80237 45.2222 3.80237C49.7444 3.80237 53.6157 5.32982 56.8361 8.38472C60.0565 11.4396 61.6667 15.112 61.6667 19.4018C61.6667 20.8318 61.3583 22.2617 60.7417 23.6917C60.125 25.1217 59.337 26.2916 58.3778 27.2016H67.8333C69.5463 27.2016 71.0023 27.7703 72.2014 28.9078C73.4005 30.0452 74 31.4264 74 33.0514V60.3505C74 61.9754 73.4005 63.3566 72.2014 64.4941C71.0023 65.6315 69.5463 66.2003 67.8333 66.2003H56.5278V74H13.3611ZM6.16667 25.2516C6.16667 27.7216 7.2287 29.8015 9.35278 31.4914C11.4769 33.1814 13.8407 34.0264 16.4444 34.0264C18.637 34.0264 20.6241 33.4576 22.4056 32.3202C24.187 31.1827 26.0028 29.5415 27.8528 27.3966C29.4287 25.5766 31.313 23.9517 33.5056 22.5217C35.6981 21.0918 38.2333 20.3768 41.1111 20.3768H55.5C55.5 17.4519 54.5921 14.9332 52.7764 12.8208C50.9606 10.7084 48.4426 9.65217 45.2222 9.65217C43.9889 9.65217 42.7727 9.83092 41.5736 10.1884C40.3745 10.5459 39.775 10.7246 39.775 10.7246L37.8222 9.16469C36.5889 8.12473 35.1843 7.31225 33.6083 6.72727C32.0324 6.14229 30.4222 5.8498 28.7778 5.8498C26.3796 5.8498 24.0843 6.43478 21.8917 7.60474C19.6991 8.7747 18.0889 10.3996 17.0611 12.4796L15.6222 15.4045L12.3333 16.4769C10.5519 17.0619 9.0787 18.2156 7.91389 19.9381C6.74907 21.6605 6.16667 23.4317 6.16667 25.2516ZM56.5278 60.3505H67.8333V33.0514H56.5278V60.3505ZM19.5278 68.1502C21.7204 68.1502 23.8787 68.1502 26.0028 68.1502C28.1269 68.1502 30.0796 68.1502 31.8611 68.1502C33.5056 68.1502 34.9787 68.1502 36.2806 68.1502C37.5824 68.1502 39.1926 68.1502 41.1111 68.1502H50.3611H19.5278Z" fill="#D9D9D9"/>
</svg>
