<svg width="74" height="74" viewBox="0 0 74 74" fill="none" xmlns="http://www.w3.org/2000/svg">
<path d="M0 74V68.45H7.59474V55.4075C5.32281 54.7908 3.48903 53.6038 2.09342 51.8463C0.697807 50.0888 0 48.0383 0 45.695V14.8H21.0316V45.695C21.0316 47.8533 20.3338 49.8575 18.9382 51.7075C17.5425 53.5575 15.7088 54.7908 13.4368 55.4075V68.45H21.0316V74H0ZM5.8421 35.2425H15.1895V20.35H5.8421V35.2425ZM10.5158 50.135C11.7491 50.135 12.8364 49.6879 13.7776 48.7938C14.7189 47.8996 15.1895 46.8667 15.1895 45.695V40.7925H5.8421V45.695C5.8421 46.8667 6.31272 47.8996 7.25395 48.7938C8.19518 49.6879 9.28246 50.135 10.5158 50.135ZM38.9474 74C37.3895 74 36.0263 73.445 34.8579 72.335C33.6895 71.225 33.1053 69.93 33.1053 68.45V30.71C33.1053 29.4767 33.4623 28.49 34.1763 27.75C34.8904 27.01 35.8965 26.3625 37.1947 25.8075L40.8947 24.235C42.4526 23.5567 43.5886 22.7242 44.3026 21.7375C45.0167 20.7508 45.3737 19.5483 45.3737 18.13V3.2375C45.3737 2.25083 45.682 1.46458 46.2987 0.87875C46.9153 0.292917 47.743 0 48.7816 0H57.9342C58.9728 0 59.8004 0.292917 60.4171 0.87875C61.0338 1.46458 61.3421 2.25083 61.3421 3.2375V18.13C61.3421 19.5483 61.7803 20.7508 62.6566 21.7375C63.5329 22.7242 64.75 23.5567 66.3079 24.235L70.0079 25.8075C71.2412 26.3008 72.2149 26.9329 72.9289 27.7038C73.643 28.4746 74 29.4767 74 30.71V68.45C74 69.93 73.4158 71.225 72.2474 72.335C71.0789 73.445 69.7158 74 68.1579 74H38.9474ZM51.2158 9.62H55.5V5.55H51.2158V9.62ZM38.9474 38.3875H68.1579V30.71L64.0684 29.23C61.4719 28.305 59.3947 26.7942 57.8368 24.6975C56.2789 22.6008 55.5 20.2883 55.5 17.76V15.17H51.2158V17.76C51.2158 20.2883 50.4855 22.5083 49.025 24.42C47.5645 26.3317 45.6009 27.8117 43.1342 28.86L38.9474 30.71V38.3875ZM38.9474 68.45H68.1579V58.9225H38.9474V68.45ZM38.9474 53.3725H68.1579V43.9375H38.9474V53.3725ZM38.9474 53.3725V43.9375V53.3725Z" fill="#D9D9D9"/>
</svg>
